<?xml version="1.0" standalone="no"?><!DOCTYPE svg PUBLIC "-//W3C//DTD SVG 1.1//EN" "http://www.w3.org/Graphics/SVG/1.1/DTD/svg11.dtd"><svg t="1582981257137" class="icon" viewBox="0 0 1024 1024" version="1.1" xmlns="http://www.w3.org/2000/svg" p-id="1623" xmlns:xlink="http://www.w3.org/1999/xlink" width="200" height="200"><defs><style type="text/css"></style></defs><path d="M720.71103397 401.53653226m-304.80908359 0a304.80908358 304.80908358 0 1 0 609.6181682 0 304.80908358 304.80908358 0 1 0-609.6181682 0Z" fill="#E9EAEB" p-id="1624"></path><path d="M638.84205801 301.25076381l-29.15370673-70.46100397L588.13995988 222.2151404l-51.07490739 20.87733469-19.31153474-5.29389578A239.94022281 239.94022281 0 0 0 479.3541349 199.84656757l-5.29389579-19.3115337 21.17558212-51.14947028-8.94742872-21.54839139-70.38644213-29.52651601-21.54839139 8.94742975-21.17558212 51.14946925-17.37292548 9.91673386a239.86566095 239.86566095 0 0 0-54.13194549 0l-17.37292445-9.99129571-21.17558213-51.0749074-21.54839243-8.94742975-70.46100397 29.15370673-8.94742872 21.5483914 21.17558212 51.07490739-5.21933393 19.75890586a239.86566095 239.86566095 0 0 0-38.25025916 38.32482204l-19.31153473 5.29389476L69.33819739 222.2151404l-21.54839139 8.94742974L18.85978484 301.25076381l8.94742974 21.54839244 50.70209813 21.17558212 9.91673385 17.37292445a239.86566095 239.86566095 0 0 0 0 54.13194549L78.50931271 432.92709565 27.58352798 454.10267777 18.85978484 475.72563101l29.15370673 70.46100399 21.54839139 8.94742974 51.07490739-21.17558212 19.31153473 5.29389476a239.86566095 239.86566095 0 0 0 38.32482102 38.25025916l5.29389578 19.31153473-21.17558212 51.14946924 8.72374316 21.62295428 70.46100397 29.15370674 21.54839243-8.94742975 21.17558213-51.14946925 17.37292445-9.91673385a240.01478466 240.01478466 0 0 0 54.13194549 0l17.37292548 9.91673385 21.17558212 51.07490739 21.54839139 8.94742873L486.36295436 669.58659479l8.94742873-21.54839138-21.17558212-51.07490844 5.29389578-19.31153369a239.94022281 239.94022281 0 0 0 38.25025916-38.54850761l19.31153473-5.29389578 51.14946924 21.17558314 21.5483914-8.94742975L638.84205801 475.72563101 630.26743857 454.10267777l-51.44771668-21.17558212-9.91673385-17.37292446a239.86566095 239.86566095 0 0 0 0-54.13194652l9.91673385-17.37292445 51.44771668-21.25014397z" fill="#A3D4FF" p-id="1625"></path><path d="M415.90195038 714.99479714a16.4781822 16.4781822 0 0 1-6.33776278-1.26755256l-21.54839139-8.94742872a16.4781822 16.4781822 0 0 1-8.94742872-8.94742975l-19.01328731-45.93013531-7.90356172-4.54827622a257.16402458 257.16402458 0 0 1-46.97400335 0l-7.90356172 4.54827622-18.93872545 46.0046982a16.4781822 16.4781822 0 0 1-8.94742873 8.94742871l-21.54839138 8.94742873a16.4781822 16.4781822 0 0 1-12.60096268 0L164.77744117 684.49897599a16.4781822 16.4781822 0 0 1-8.94742975-8.94742871l-8.94742872-21.5483914a16.4781822 16.4781822 0 0 1 0-12.60096267l19.01328731-45.93013635-2.3859814-8.79830501a257.23858643 257.23858643 0 0 1-32.80723966-33.03092522l-8.79830604-2.3859814-45.93013532 19.01328627a16.4781822 16.4781822 0 0 1-12.60096268 0L41.82485249 561.4718265a17.22380075 17.22380075 0 0 1-9.24567613-9.02199057l-29.15370674-70.53556584a16.4781822 16.4781822 0 0 1 0-12.60096268l8.94742975-21.54839242a16.4781822 16.4781822 0 0 1 8.94742872-8.87286687l45.93013635-19.01328628 4.54827621-7.90356275a257.31314829 257.31314829 0 0 1 0-46.97400231l-4.54827621-7.90356276-46.0046982-19.08784814a16.4781822 16.4781822 0 0 1-8.94742872-8.87286789l-8.94742975-21.54839139a16.4781822 16.4781822 0 0 1 0-12.60096267l29.22826859-70.46100399A16.4781822 16.4781822 0 0 1 41.22835766 215.57913123l21.54839139-8.94742975a16.4781822 16.4781822 0 0 1 12.60096268 0l45.93013635 19.01328731 9.39480087-2.31141955a257.23858643 257.23858643 0 0 1 33.18004893-33.25461078l2.3859814-8.79830605-19.01328731-45.93013531a16.4781822 16.4781822 0 0 1 0-12.60096268l8.8728679-21.54839242a16.4781822 16.4781822 0 0 1 8.94742871-8.94742872L235.08932144 63.10002654a16.4781822 16.4781822 0 0 1 12.60096268 0l21.54839138 8.94742975a16.4781822 16.4781822 0 0 1 8.94742873 8.94742873l19.0132873 45.93013634 7.90356173 4.54827621a256.64209057 256.64209057 0 0 1 46.97400335 0l7.90356172-4.54827621 19.01328731-45.93013634a16.4781822 16.4781822 0 0 1 8.94742872-8.94742873l21.54839139-8.94742975a16.4781822 16.4781822 0 0 1 12.60096267 0l70.46100398 29.15370674a16.4781822 16.4781822 0 0 1 8.94742975 8.94742872l8.94742872 21.54839242a16.4781822 16.4781822 0 0 1 0 12.60096268l-19.01328628 45.93013531 2.38598037 8.79830605a258.58070085 258.58070085 0 0 1 33.25461182 33.18004893l8.79830501 2.3859814 45.93013635-19.01328731a16.4781822 16.4781822 0 0 1 12.60096268 0l21.54839138 8.94742975a16.4781822 16.4781822 0 0 1 8.94742873 8.94742871l29.15370672 70.46100399a16.4781822 16.4781822 0 0 1 0 12.60096267L645.17982079 329.13691799a16.4781822 16.4781822 0 0 1-8.94742975 8.94742975l-45.93013531 19.01328628-4.77196281 7.8290009a255.89647203 255.89647203 0 0 1 0 46.97400232l4.54827724 7.90356275 45.93013532 19.01328628a16.4781822 16.4781822 0 0 1 8.94742975 8.94742872l8.79830501 21.17558212a17.2983626 17.2983626 0 0 1 0 12.89921112l-29.15370674 70.46100399a16.4781822 16.4781822 0 0 1-8.87286685 8.94742871l-21.54839244 8.94742872a16.4781822 16.4781822 0 0 1-12.60096164 0l-45.93013634-19.01328628-8.79830502 2.3859814a256.34384315 256.34384315 0 0 1-33.18004996 33.25461079l-2.3859814 8.79830501 19.01328732 45.93013635a16.4781822 16.4781822 0 0 1 0 12.60096267l-8.94742873 21.54839139a16.4781822 16.4781822 0 0 1-8.94742975 8.94742975l-70.16275656 29.15370571a16.4781822 16.4781822 0 0 1-6.33776175 1.1929907zM407.02908352 677.04278539l8.94742871 3.72809582L473.68742983 656.76194655l3.72809582-8.94742974-18.56591619-44.73714462a16.4781822 16.4781822 0 0 1-0.67105668-10.66235342l5.29389578-19.31153473a16.4781822 16.4781822 0 0 1 5.59214321-8.57461945 223.6857272 223.6857272 0 0 0 35.64059219-35.71515404 16.4781822 16.4781822 0 0 1 8.57461944-5.66670507l19.31153473-5.29389578a16.55274406 16.55274406 0 0 1 10.6623524 0.67105772l44.73714565 18.56591515 8.94742871-3.72809582L621.02176243 475.72563101l-3.72809581-8.94742871-44.73714565-18.56591515a16.4781822 16.4781822 0 0 1-7.97812461-7.08338133L554.5125388 423.53229478a16.4781822 16.4781822 0 0 1-2.08773296-10.06585757 223.6857272 223.6857272 0 0 0 0-50.40385071 16.4781822 16.4781822 0 0 1 2.08773296-9.99129571l9.91673386-17.37292445a16.4781822 16.4781822 0 0 1 7.9781246-7.08338133l44.73714565-18.56591515 3.72809478-8.94742975-23.9343728-57.8600413-8.94742871-3.72809479-44.73714565 18.56591515a16.4781822 16.4781822 0 0 1-10.6623524 0.6710567l-19.31153473-5.29389476a16.4781822 16.4781822 0 0 1-8.57461944-5.59214321 224.35678389 224.35678389 0 0 0-35.71515404-35.64059322 16.4781822 16.4781822 0 0 1-5.66670507-8.57461944l-5.29389579-19.31153473a16.4781822 16.4781822 0 0 1 0.74561855-10.43866684l18.56591618-44.73714565-3.72809581-8.94742871-57.7109176-24.00893465-8.94742871 3.72809581-18.56591619 44.73714462a16.4781822 16.4781822 0 0 1-7.08338132 7.97812461L364.00686156 162.56561355a16.55274406 16.55274406 0 0 1-10.06585756 2.08773296 224.28222204 224.28222204 0 0 0-50.47841257 0 16.32905849 16.32905849 0 0 1-9.9912957-2.08773296l-17.37292446-9.91673385a16.4781822 16.4781822 0 0 1-7.08338132-7.97812461l-18.56591516-44.73714462-8.94742975-3.72809581-57.8600413 23.93437279-3.72809582 8.94742873 18.56591619 44.73714564a16.4781822 16.4781822 0 0 1 0.67105669 10.66235343l-5.29389579 19.3115337a16.4781822 16.4781822 0 0 1-5.59214321 8.57461944A223.6857272 223.6857272 0 0 0 153.07122074 248.08812347a16.4781822 16.4781822 0 0 1-8.57461944 5.66670506l-19.3115337 5.29389475a16.4781822 16.4781822 0 0 1-10.66235343-0.67105668l-44.73714565-18.56591515-8.94742872 3.72809478-24.38174391 57.71091758 3.72809478 8.94742975 44.73714564 18.56591516a16.4781822 16.4781822 0 0 1 7.97812461 7.08338133l9.91673385 17.37292445a16.4781822 16.4781822 0 0 1 2.08773296 10.06585756 223.6857272 223.6857272 0 0 0 0 50.47841257 16.4781822 16.4781822 0 0 1-2.0131711 9.76761015l-9.91673386 17.37292548a16.40362035 16.40362035 0 0 1-7.9781246 7.00881947l-44.73714565 18.56591516L36.45639589 475.72563101l23.93437279 57.86004131 8.94742871 3.72809582 44.73714566-18.56591516a16.32905849 16.32905849 0 0 1 10.66235239-0.67105772l19.31153473 5.29389579a16.4781822 16.4781822 0 0 1 8.57461944 5.59214321 224.20766018 224.20766018 0 0 0 35.71515405 35.64059218 16.4781822 16.4781822 0 0 1 5.66670506 8.57461945l5.29389579 19.31153473a16.4781822 16.4781822 0 0 1-0.67105669 10.66235343l-18.56591515 44.73714461 3.72809478 8.94742975 57.8600413 23.9343728 8.94742975-3.72809582 18.56591516-44.73714564a16.40362035 16.40362035 0 0 1 7.00881946-7.97812358l17.37292445-9.91673386a16.40362035 16.40362035 0 0 1 10.06585757-2.08773398 225.25152717 225.25152717 0 0 0 50.47841257 0 16.25449664 16.25449664 0 0 1 9.9912957 2.08773398l17.37292549 9.91673386a16.4781822 16.4781822 0 0 1 7.00881844 7.97812358z" fill="#2A5082" p-id="1626"></path><path d="M990.62514493 697.17450052l-15.95624819-38.62306842-21.54839242-8.94742872-26.54403976 11.03516167-19.23697185-5.14477104a164.03619932 164.03619932 0 0 0-20.72821099-20.728211l-5.14477208-19.31153473 11.0351627-26.61860059L883.77792918 567.43677897l-38.62306842-15.95624819-21.54839242 8.94742872-11.03516271 26.54403977-17.2983626 9.9912957a164.03619932 164.03619932 0 0 0-29.30283044 0l-17.22380074-9.9912957-11.0351627-26.54403977-21.5483914-8.94742872-38.77219213 15.95624819-8.94742975 21.54839243 11.03516271 26.54403873-5.14477209 19.23697288a164.03619932 164.03619932 0 0 0-20.72820996 20.728211l-19.31153473 5.14477104L607.89886574 649.67856523l-21.54839139 8.94742872L570.61791172 697.17450052l8.94742872 21.54839243 26.61860161 11.0351627 9.99129572 17.2983626a164.03619932 164.03619932 0 0 0 0 29.30283044l-9.99129572 17.22380075-26.54403976 11.03516269L570.61791172 826.16660353l15.95624819 38.62306842 21.54839139 8.94742975 26.54403977-11.03516269 19.23697288 5.14477207a164.03619932 164.03619932 0 0 0 20.72821099 20.72820996l5.14477105 19.31153473-11.03516271 26.54403977 8.94742975 21.5483914 38.62306843 15.95624818 21.54839139-8.94742872 11.03516271-26.54403976 17.29836363-9.99129571a164.03619932 164.03619932 0 0 0 29.3028294 0l17.22380178 9.99129571 11.03516168 26.54403976 21.54839242 8.94742872 38.62306843-15.95624818 8.94742872-21.5483914-11.03516168-26.54403977 5.14477105-19.23697287a164.03619932 164.03619932 0 0 0 20.728211-20.72820996l19.31153473-5.14477208 26.54403976 11.0351627 21.5483914-8.94742975 15.95624818-38.62306843-8.94742872-21.54839139-26.61860161-11.0351627-9.99129572-17.2983626a164.03619932 164.03619932 0 0 0 0-29.30283044l9.99129572-17.22380074 26.54403976-11.03516271z" fill="#FFFFFF" p-id="1627"></path><path d="M844.93117417 988.33875546a16.4781822 16.4781822 0 0 1-6.33776175-1.26755254l-21.5483914-8.94742873a16.4781822 16.4781822 0 0 1-8.94742975-8.94742975l-8.87286686-21.39926768-8.05268647-4.62283807a182.67667737 182.67667737 0 0 1-21.62295324 0l-8.05268647 4.62283807-8.87286685 21.39926768a16.4781822 16.4781822 0 0 1-8.87286687 8.94742975l-21.54839243 8.94742873a16.4781822 16.4781822 0 0 1-12.60096267 0l-38.62306843-15.95624819a16.4781822 16.4781822 0 0 1-8.94742872-8.94742975l-8.94742975-21.5483914a16.4781822 16.4781822 0 0 1 0-12.60096268l8.8728679-21.39926768-2.38598141-8.94742872a181.1108774 181.1108774 0 0 1-15.28519149-14.91238222l-8.94742872-2.3859814-21.39926769 8.87286789a16.4781822 16.4781822 0 0 1-12.60096267 0l-21.54839243-8.87286789a16.4781822 16.4781822 0 0 1-8.94742871-8.94742873l-15.95624819-38.62306842a16.4781822 16.4781822 0 0 1 0-12.60096268l8.94742871-21.54839242a16.4781822 16.4781822 0 0 1 8.94742873-8.94742872l21.39926767-8.87286686 4.62283911-8.05268647a181.26000111 181.26000111 0 0 1 0-21.62295324l-4.62283911-8.05268647-21.39926767-8.87286686a16.4781822 16.4781822 0 0 1-8.94742873-8.94742975l-8.94742871-21.54839139a16.4781822 16.4781822 0 0 1 0-12.60096268l15.95624819-38.62306842a16.4781822 16.4781822 0 0 1 8.94742871-8.94742975l21.17558212-8.79830501a17.22380075 17.22380075 0 0 1 12.8992101 0l21.39926871 8.87286685 8.94742873-2.38598036a182.30386706 182.30386706 0 0 1 14.91238222-15.28519151l2.38598037-8.94742871-8.20181017-21.99576355a16.4781822 16.4781822 0 0 1 0-12.60096268l8.94742975-21.54839139a16.4781822 16.4781822 0 0 1 8.94742871-8.94742975l38.62306946-15.95624819a16.4781822 16.4781822 0 0 1 12.60096165 0l21.54839242 8.94742872a16.4781822 16.4781822 0 0 1 8.94742872 8.94742975l8.87286686 21.39926768 8.05268646 4.62283808a178.12840012 178.12840012 0 0 1 21.62295326 0l8.05268645-4.62283808 8.87286791-21.39926768a16.4781822 16.4781822 0 0 1 8.87286685-8.94742975l21.5483914-8.94742872a16.4781822 16.4781822 0 0 1 12.60096268 0l38.62306842 15.95624819a16.4781822 16.4781822 0 0 1 8.94742975 8.94742975l8.79830501 21.17558212a17.2983626 17.2983626 0 0 1 0 12.8992101L898.69031142 616.72220083l2.38598037 8.94742975a182.30386706 182.30386706 0 0 1 15.2851915 14.91238119l8.94742871 2.38598141 21.39926871-8.87286686a16.4781822 16.4781822 0 0 1 12.60096269 0l21.54839139 8.94742871a16.4781822 16.4781822 0 0 1 8.94742871 8.94742872l15.95624922 38.62306946a16.4781822 16.4781822 0 0 1 0 12.60096268l-8.94742974 21.54839139a16.4781822 16.4781822 0 0 1-8.94742872 8.94742872l-21.39926768 8.87286789-4.6228391 8.05268544a184.24247734 184.24247734 0 0 1 0 21.62295427l4.6228391 8.05268544 21.39926768 8.87286789a16.4781822 16.4781822 0 0 1 8.94742872 8.94742871l8.94742974 21.47382954a16.4781822 16.4781822 0 0 1 0 12.60096268l-15.88168737 38.69763132a16.4781822 16.4781822 0 0 1-8.94742871 8.94742871l-21.47382954 8.94742872a16.4781822 16.4781822 0 0 1-12.60096268 0l-21.39926768-8.87286687-8.94742975 2.38598141a182.22930521 182.22930521 0 0 1-14.91238119 15.2851915l-2.3859814 8.94742871 8.87286685 21.39926769a16.4781822 16.4781822 0 0 1 0 12.60096267L898.69031142 961.86927756a17.22380075 17.22380075 0 0 1-9.02199161 9.24567717l-38.62306843 15.95624819a16.4781822 16.4781822 0 0 1-6.11407721 1.26755254z m-8.94742872-38.02657359l8.94742872 3.72809582 26.02210677-10.73691528 3.72809582-8.94742873-8.35093388-20.28083986a16.4781822 16.4781822 0 0 1-0.67105772-10.5132287l5.14477208-19.23697287a16.4781822 16.4781822 0 0 1 5.36845764-8.35093388 148.37819856 148.37819856 0 0 0 18.64047701-18.64047701 16.40362035 16.40362035 0 0 1 8.42549574-5.36845764l19.31153473-5.14477105a16.40362035 16.40362035 0 0 1 10.51322869 0.67105669l20.05715327 8.50005759 8.94742975-3.72809582 10.73691426-26.02210575-3.72809479-8.94742871-20.28083987-8.42549574a16.4781822 16.4781822 0 0 1-7.97812461-6.93425761l-9.99129571-17.29836363a16.4781822 16.4781822 0 0 1-2.16229481-9.76760912 147.78170372 147.78170372 0 0 0 0-26.39491606 16.4781822 16.4781822 0 0 1 2.16229481-9.69304829l10.0658586-17.00011518a16.4781822 16.4781822 0 0 1 7.97812358-6.93425761l20.28083986-8.42549574 3.72809478-8.94742872-10.73691424-25.94754493-8.94742975-3.72809478-20.28083884 8.42549573a16.55274406 16.55274406 0 0 1-10.51322972 0.67105669l-18.71503886-4.99564836a18.11854403 18.11854403 0 0 1-8.94742873-5.51758032A148.45276041 148.45276041 0 0 0 876.3217386 647.21802197a16.40362035 16.40362035 0 0 1-5.36845766-8.42549573l-5.14477207-19.31153473a16.4781822 16.4781822 0 0 1 0.67105772-10.5132287l8.42549574-20.28083986-3.72809582-8.94742872-26.02210575-10.73691528-8.94742975 3.72809581-8.42549573 20.28083884a16.4781822 16.4781822 0 0 1-6.93425762 7.97812461l-17.2983626 9.99129571a16.32905849 16.32905849 0 0 1-9.76761015 2.16229583 149.12381814 149.12381814 0 0 0-26.39491605 0 16.25449664 16.25449664 0 0 1-9.69304726-2.16229583l-17.22380178-9.99129571a16.4781822 16.4781822 0 0 1-6.93425762-7.97812461L724.96106277 572.6561129l-8.94742873-3.7280958L689.9169654 580.1123035l-3.72809478 8.94742975 8.42549574 20.28083884a16.4781822 16.4781822 0 0 1 0.67105669 10.51322972l-5.14477105 19.23697185a16.4781822 16.4781822 0 0 1-5.21933394 8.12724831 148.45276041 148.45276041 0 0 0-18.640477 18.64047702 16.4781822 16.4781822 0 0 1-8.42549574 5.36845764l-19.31153473 5.14477207a16.40362035 16.40362035 0 0 1-10.58779157-0.67105772L607.89886574 667.49886081l-8.94742872 3.72809582-10.81147714 25.94754389 3.72809582 8.94742975 20.20627698 8.20181017a16.4781822 16.4781822 0 0 1 7.97812462 6.93425762l10.21498127 17.52204816a16.4781822 16.4781822 0 0 1 2.16229584 9.76761015 147.63258001 147.63258001 0 0 0 0 26.39491605 16.4781822 16.4781822 0 0 1-2.16229584 9.69304727l-9.99129572 17.22380177a16.4781822 16.4781822 0 0 1-7.9781246 6.93425762l-20.28083884 8.42549574-3.72809582 8.94742871 10.73691529 26.02210575 8.94742872 3.72809582 20.28083987-8.35093388a16.32905849 16.32905849 0 0 1 10.51322869-0.67105669l19.23697287 5.14477104a16.4781822 16.4781822 0 0 1 8.42549574 5.36845765 148.00538929 148.00538929 0 0 0 18.640477 18.64047701 16.4781822 16.4781822 0 0 1 5.36845765 8.42549573l5.14477105 19.31153473a16.4781822 16.4781822 0 0 1-0.67105669 10.58779157l-8.42549574 20.28083884 3.72809582 8.94742872 26.02210575 10.73691528 8.94742871-3.72809581 8.42549574-20.28083884a16.4781822 16.4781822 0 0 1 6.93425762-7.97812461l17.29836363-9.9912957a16.77642961 16.77642961 0 0 1 9.76761014-2.16229482 148.45276041 148.45276041 0 0 0 26.39491503 0 16.4781822 16.4781822 0 0 1 9.69304829 2.16229482l17.22380074 9.9912957a16.40362035 16.40362035 0 0 1 6.93425762 7.97812461z" fill="#2A5082" p-id="1628"></path><path d="M780.46308981 761.6620236m-67.02629384 27.76319987a72.54873693 72.54873693 0 1 0 134.05258664-55.52639975 72.54873693 72.54873693 0 1 0-134.05258664 55.52639975Z" fill="#FFFFFF" p-id="1629"></path><path d="M780.58424741 850.69747116a89.02691913 89.02691913 0 1 1 82.01809965-123.10171135 89.02691913 89.02691913 0 0 1-82.01809965 123.10171135z m0-145.17203676a56.21967947 56.21967947 0 1 0 21.47382953 4.32459065 55.99599391 55.99599391 0 0 0-21.62295324-4.32459065z" fill="#2A5082" p-id="1630"></path><path d="M325.38379313 385.05835005m-115.34727334 0a115.34727334 115.34727334 0 1 0 230.69454667 0 115.34727334 115.34727334 0 1 0-230.69454667 0Z" fill="#FFFFFF" p-id="1631"></path><path d="M325.38379313 516.88380456a131.82545553 131.82545553 0 1 1 131.75089265-131.82545451 131.97457924 131.97457924 0 0 1-131.75089265 131.82545451z m0-230.61998379a98.86909114 98.86909114 0 1 0 98.79452928 98.79452928 98.94365299 98.94365299 0 0 0-98.79452928-98.86909113z" fill="#2A5082" p-id="1632"></path></svg>