<?xml version="1.0" standalone="no"?><!DOCTYPE svg PUBLIC "-//W3C//DTD SVG 1.1//EN" "http://www.w3.org/Graphics/SVG/1.1/DTD/svg11.dtd"><svg t="1581873333598" class="icon" viewBox="0 0 1024 1024" version="1.1" xmlns="http://www.w3.org/2000/svg" p-id="888" xmlns:xlink="http://www.w3.org/1999/xlink" width="200" height="200"><defs><style type="text/css"></style></defs><path d="M875.38828558 207.18691967v744.3643426c0 28.73592578-23.16184861 51.932396-51.932396 51.93239602h-623.18875195c-28.73592578 0-51.932396-23.19647021-51.93239599-51.93239602v-900.16153059c0-28.77054737 23.19647021-51.932396 51.93239599-51.93239599h467.39156397z" fill="#E9EDED" p-id="889"></path><path d="M131.16242936 778.44327563v173.10798664c0 38.36072983 30.88246482 69.24319466 69.24319467 69.24319469h623.18875194c38.36072983 0 69.24319466-30.88246482 69.24319467-69.24319469v-173.10798664H131.16242936z" fill="#25B39E" p-id="890"></path><path d="M875.38828558 207.18691967h-155.79718798c-28.73592578 0-51.932396-23.19647021-51.932396-51.932396v-155.79718798" fill="#25B39E" p-id="891"></path><path d="M425.72297944 293.74091298c-38.08375706 0-69.24319466 31.1594376-69.24319464 69.24319468v34.62159734c0 19.49195928-15.16425963 34.62159733-34.62159734 34.62159731a17.31079867 17.31079867 0 0 0-3.46215973 0.27697277 17.31079867 17.31079867 0 0 0-13.39855817 12.15218069 17.31079867 17.31079867 0 0 0-0.38083757 1.62721505 17.31079867 17.31079867 0 0 0 0 0.06924322 17.31079867 17.31079867 0 0 0 17.24155547 20.4959856c19.45733769 0 34.62159733 15.12963802 34.62159734 34.62159734v34.62159732c0 38.08375706 31.1594376 69.24319466 69.24319464 69.24319467a17.31079867 17.31079867 0 1 0 0-34.62159732c-19.49195928 0-34.62159733-15.12963802-34.62159732-34.62159735v-34.62159731c0-20.7037152-9.45169607-39.22626978-24.02738854-51.93239602a68.89697868 68.89697868 0 0 0 24.02738854-51.93239597v-34.62159734c0-19.49195928 15.12963802-34.62159733 34.62159732-34.62159733a17.31079867 17.31079867 0 1 0 0-34.62159735z m170.78833964 0a17.31079867 17.31079867 0 0 0 1.76570148 34.62159735c19.49195928 0 34.62159733 15.12963802 34.62159732 34.62159733v34.62159734c0 20.7383368 9.45169607 39.19164818 24.02738854 51.93239597-14.54107088 12.70612622-24.02738855 31.2286808-24.02738854 51.93239601v34.62159732c0 19.49195928-15.12963802 34.62159733-34.62159732 34.62159735a17.31079867 17.31079867 0 1 0 0 34.62159732c38.08375706 0 69.24319466-31.1594376 69.24319464-69.24319467v-34.62159732c0-19.49195928 15.16425963-34.62159733 34.62159734-34.62159734a17.31079867 17.31079867 0 0 0 11.21739754-3.91224049 17.31079867 17.31079867 0 0 0 1.31562069-1.2463775 17.31079867 17.31079867 0 0 0-12.53301823-29.46297934c-19.45733769 0-34.62159733-15.12963802-34.62159734-34.62159731v-34.62159734c0-38.08375706-31.1594376-69.24319466-69.24319464-69.24319468a17.31079867 17.31079867 0 0 0-1.73107989 0zM512 345.46557942a34.62159733 34.62159733 0 0 0-34.62159733 34.62159731 34.62159733 34.62159733 0 0 0 34.62159733 34.62159733 34.62159733 34.62159733 0 0 0 34.62159733-34.62159733 34.62159733 34.62159733 0 0 0-34.62159733-34.62159731z m0 103.86479198a34.62159733 34.62159733 0 0 0-34.62159733 34.62159733 34.62159733 34.62159733 0 0 0 17.58777145 30.15541128l-15.5797188 31.22868079a17.31079867 17.31079867 0 1 0 30.9863296 15.4412324l25.96619801-52.20936876a34.62159733 34.62159733 0 0 0 10.21337119-23.26571342 17.31079867 17.31079867 0 0 0 0-0.20772957 34.62159733 34.62159733 0 0 0 0.06924321-1.14251272 34.62159733 34.62159733 0 0 0-34.62159733-34.62159733z" fill="#25B39E" p-id="892"></path><path d="M448.38858515 812.92638658a17.31079867 17.31079867 0 0 0-17.03382588 17.58777143V934.10197721c0 9.90177683-7.40902182 17.31079867-17.31079867 17.31079867a16.8953395 16.8953395 0 0 1-17.31079866-17.31079867 17.31079867 17.31079867 0 0 0-17.58777144-17.51852823 17.31079867 17.31079867 0 0 0-17.0338259 17.51852823c0 28.458953 23.473443 51.932396 51.932396 51.93239602 26.79711634 0 48.81645225-20.87682318 51.37845044-47.08537239a17.31079867 17.31079867 0 0 0 0.55394556-4.57005085v-103.86479198a17.31079867 17.31079867 0 0 0-17.58777145-17.58777143z m102.13371214 0.13848639a17.31079867 17.31079867 0 0 0-2.18116065 0.41545915c-26.65862994 2.07729585-48.0201555 24.37360451-48.0201555 51.51693682 0 27.35106189 21.74236313 49.85510015 48.67796585 51.58618004a17.31079867 17.31079867 0 0 0 3.25443016 0.34621597h34.62159733c9.90177683 0 17.31079867 7.40902182 17.31079867 17.31079867 0 9.90177683-7.40902182 17.31079867-17.31079867 17.31079865h-69.24319466a17.31079867 17.31079867 0 1 0 0 34.62159735h69.24319466a17.31079867 17.31079867 0 0 0 3.60064612-0.41545917 52.03626079 52.03626079 0 0 0 48.33174987-51.51693683c0-27.21257551-21.46539034-49.64737055-48.19326348-51.58618002a17.31079867 17.31079867 0 0 0-3.73913251-0.346216h-33.40984144a17.31079867 17.31079867 0 0 0-1.21175589 0 16.8953395 16.8953395 0 0 1-17.31079867-17.31079866c0-9.90177683 7.40902182-17.31079867 17.31079867-17.31079864h69.24319465a17.31079867 17.31079867 0 1 0 0-34.62159733h-68.03143876a17.31079867 17.31079867 0 0 0-1.21175589 0 17.31079867 17.31079867 0 0 0-1.73107986 0z" fill="#E9EDED" p-id="893"></path></svg>