<?xml version="1.0" standalone="no"?><!DOCTYPE svg PUBLIC "-//W3C//DTD SVG 1.1//EN" "http://www.w3.org/Graphics/SVG/1.1/DTD/svg11.dtd"><svg t="1581872927036" class="icon" viewBox="0 0 1024 1024" version="1.1" xmlns="http://www.w3.org/2000/svg" p-id="788" xmlns:xlink="http://www.w3.org/1999/xlink" width="200" height="200"><defs><style type="text/css"></style></defs><path d="M875.95018836 206.56409736v745.51534392c0 28.78035979-23.19766349 52.01269841-52.01269841 52.01269841h-624.15238095c-28.78035979 0-52.01269841-23.23233862-52.01269841-52.01269841v-901.55343916c0-28.81503492 23.23233862-52.01269841 52.01269841-52.01269841h468.11428571z" fill="#E9EDED" p-id="789"></path><path d="M130.57354497 778.7037799v173.37566138c0 38.42004656 30.93021799 69.35026455 69.35026455 69.35026454h624.15238096c38.42004656 0 69.35026455-30.93021799 69.35026455-69.35026454v-173.37566138H130.57354497z" fill="#F17F53" p-id="790"></path><path d="M875.95018836 206.56409736h-156.03809523c-28.78035979 0-52.01269841-23.23233862-52.01269842-52.01269841v-156.03809524" fill="#F17F53" p-id="791"></path><path d="M425.58957037 293.25192805c-38.14264551 0-69.35026455 31.20761905-69.35026455 69.35026455v34.67513227c0 19.52209947-15.18770794 34.67513227-34.67513228 34.67513228a17.33756614 17.33756614 0 0 0-17.26821587 14.0781037 17.33756614 17.33756614 0 0 0 0 0.06935027 17.33756614 17.33756614 0 0 0 5.13191958 15.77718518 17.33756614 17.33756614 0 0 0 2.70466032 2.08050794 17.33756614 17.33756614 0 0 0 4.81984338 2.08050793 17.33756614 17.33756614 0 0 0 3.39816297 0.52012699 17.33756614 17.33756614 0 0 0 1.21362962 0.06935026c19.48742434 0 34.67513227 15.15303281 34.67513228 34.67513228v34.67513228c0 38.14264551 31.20761905 69.35026455 69.35026455 69.35026454a17.33756614 17.33756614 0 1 0 0-34.67513227c-19.52209947 0-34.67513227-15.15303281-34.67513227-34.67513227v-34.67513228c0-20.7357291-9.46631111-39.28692487-24.0645418-52.01269842a69.00351322 69.00351322 0 0 0 24.0645418-52.01269841v-34.67513227c0-19.52209947 15.15303281-34.67513227 34.67513227-34.67513227a17.33756614 17.33756614 0 1 0 0-34.67513228z m136.37729524 0a17.33756614 17.33756614 0 0 0 1.76843174 34.67513228c19.52209947 0 34.67513227 15.15303281 34.67513228 34.67513227v34.67513227c0 20.77040424 9.46631111 39.25224973 24.0645418 52.01269841-14.56355556 12.72577354-24.0645418 31.27696932-24.0645418 52.01269842v34.67513228c0 19.52209947-15.15303281 34.67513227-34.67513228 34.67513227a17.33756614 17.33756614 0 1 0 0 34.67513227c38.14264551 0 69.35026455-31.20761905 69.35026455-69.35026454v-34.67513228c0-19.52209947 15.18770794-34.67513227 34.67513228-34.67513228a17.33756614 17.33756614 0 0 0 11.23474285-3.91828995 17.33756614 17.33756614 0 0 0 1.31765503-1.24830476 17.33756614 17.33756614 0 0 0-12.55239788-29.50853756c-19.48742434 0-34.67513227-15.15303281-34.67513228-34.67513228v-34.67513227c0-38.14264551-31.20761905-69.35026455-69.35026455-69.35026455a17.33756614 17.33756614 0 0 0-1.73375661 0zM494.66243386 362.46349207a17.33756614 17.33756614 0 0 0-17.33756613 17.33756613 17.33756614 17.33756614 0 0 0 17.33756613 17.33756615 17.33756614 17.33756614 0 0 0 17.33756614-17.33756615 17.33756614 17.33756614 0 0 0-17.33756614-17.33756613z m-0.27740105 69.14221375A17.33756614 17.33756614 0 0 0 477.32486773 449.15132276v104.02539682a17.33756614 17.33756614 0 1 0 34.67513227 0v-104.02539682a17.33756614 17.33756614 0 0 0-17.61496719-17.54561694z" fill="#F17F53" p-id="792"></path><path d="M738.01251217 812.82411006a17.33756614 17.33756614 0 0 0-1.76843174 0.06935027 17.33756614 17.33756614 0 0 0-16.26263705 18.75924656v137.4175492a17.33756614 17.33756614 0 1 0 34.67513228 0v-86.68783068l72.1936254 96.39686772a17.33756614 17.33756614 0 0 0 0.06935026 0.10402539l0.48545185 0.62415238a17.33756614 17.33756614 0 0 0 31.27696932-10.40253968v-138.35377778a17.33756614 17.33756614 0 0 0-17.6149672-17.58029206 17.33756614 17.33756614 0 0 0-17.06016508 17.6149672v86.34107937l-72.74842751-97.09037038a17.33756614 17.33756614 0 0 0-13.24590053-7.21242751zM286.33423916 813.24021165a17.33756614 17.33756614 0 0 0-17.06016508 17.61496719V934.60317461c0 9.91708783-7.4204783 17.33756614-17.33756614 17.33756613a16.92146455 16.92146455 0 0 1-17.33756614-17.33756613 17.33756614 17.33756614 0 0 0-17.6149672-17.54561693A17.33756614 17.33756614 0 0 0 199.92380952 934.60317461c0 28.50295873 23.50973968 52.01269841 52.01269842 52.01269842 26.83855238 0 48.92661164-20.90910476 51.4578963-47.1581799a17.33756614 17.33756614 0 0 0 0.55480211-4.57711747v-104.02539682A17.33756614 17.33756614 0 0 0 286.33423916 813.24021165z m312.35359152 0a86.96523175 86.96523175 0 0 0-86.68783068 86.68783068c0 47.67830687 39.00952381 86.68783068 86.68783068 86.6878307s86.68783068-39.00952381 86.6878307-86.6878307-39.00952381-86.68783068-86.6878307-86.68783068z m-210.09662644 0.13870052a17.33756614 17.33756614 0 0 0-2.14985821 0.41610159c-26.69985186 2.08050794-48.09440846 24.41129313-48.09440846 51.59659683 0 27.39335449 21.77598307 49.93219048 48.75323597 51.66594709a17.33756614 17.33756614 0 0 0 3.25946244 0.34675132h34.67513227c9.91708783 0 17.33756614 7.4204783 17.33756614 17.33756614 0 9.91708783-7.4204783 17.33756614-17.33756614 17.33756614h-69.35026455a17.33756614 17.33756614 0 1 0 0 34.67513227h69.35026455a17.33756614 17.33756614 0 0 0 3.60621376-0.41610159 52.11672381 52.11672381 0 0 0 48.40648466-51.59659682c0-27.25465397-21.49858201-49.72413968-48.26778413-51.66594709a17.33756614 17.33756614 0 0 0-3.74491429-0.34675132h-33.46150264a17.33756614 17.33756614 0 0 0-1.21362963 0 16.92146455 16.92146455 0 0 1-17.33756614-17.33756614c0-9.91708783 7.45515344-17.33756614 17.33756614-17.33756614h69.35026455a17.33756614 17.33756614 0 1 0 0-34.67513228h-68.13663492a17.33756614 17.33756614 0 0 0-1.21362963 0 17.33756614 17.33756614 0 0 0-1.73375661 0zM598.68783068 847.91534392c28.91906032 0 52.01269841 23.0936381 52.01269842 52.01269841s-23.0936381 52.01269841-52.01269842 52.01269841-52.01269841-23.0936381-52.01269841-52.01269841 23.0936381-52.01269841 52.01269841-52.01269841z" fill="#E9EDED" p-id="793"></path></svg>