<?xml version="1.0" standalone="no"?><!DOCTYPE svg PUBLIC "-//W3C//DTD SVG 1.1//EN" "http://www.w3.org/Graphics/SVG/1.1/DTD/svg11.dtd"><svg t="1582979749286" class="icon" viewBox="0 0 1024 1024" version="1.1" xmlns="http://www.w3.org/2000/svg" p-id="1585" xmlns:xlink="http://www.w3.org/1999/xlink" width="200" height="200"><defs><style type="text/css"></style></defs><path d="M769.984 878.496a453.28 453.28 0 0 1-27.232 17.55733334c-12.65066667 7.53066667-16.81066667 23.89333333-9.28 36.55466666 4.992 8.384 13.84533333 13.03466667 22.944 13.03466667 4.64 0 9.344-1.216 13.61066667-3.75466667 10.32533333-6.144 20.56533333-12.75733333 30.44266666-19.62666666 12.08533333-8.416 15.05066667-25.04533333 6.63466667-37.12-8.416-12.096-25.03466667-15.06133333-37.12-6.64533334z" fill="#0000FF" p-id="1586"></path><path d="M977.248 311.54133334c-25.41866667-60.096-61.792-114.05866667-108.128-160.384-46.336-46.336-100.29866667-82.70933333-160.384-108.128-62.22933333-26.32533333-128.30933333-39.66933333-196.42666667-39.66933334S378.10133333 16.704 315.872 43.02933334c-60.096 25.41866667-114.05866667 61.80266667-160.384 108.128-46.336 46.336-82.70933333 100.29866667-108.128 160.384-26.32533333 62.22933333-39.66933333 128.30933333-39.66933333 196.42666666S21.03466667 642.16533334 47.36 704.39466667c25.41866667 60.096 61.792 114.05866667 108.128 160.384 46.336 46.336 100.29866667 82.70933333 160.384 108.128 62.22933333 26.32533333 128.30933333 39.66933333 196.42666667 39.66933333 33.62133333 0 67.232-3.328 99.92533333-9.89866666 14.44266667-2.90133333 23.79733333-16.96 20.896-31.40266667-2.90133333-14.44266667-16.96-23.79733333-31.40266667-20.896-29.23733333 5.87733333-59.31733333 8.85333333-89.41866666 8.85333333C263.46666667 959.24266667 61.024 756.81066667 61.024 507.968S263.46666667 56.69333334 512.29866667 56.69333334s451.27466667 202.44266667 451.27466666 451.27466666c0 121.84533333-47.81866667 236.04266667-134.64533333 321.55733334-10.496 10.336-10.624 27.22133333-0.288 37.70666666 10.336 10.496 27.22133333 10.624 37.70666667 0.288 47.15733333-46.44266667 84.21333333-100.71466667 110.12266666-161.312 26.83733333-62.752 40.43733333-129.45066667 40.43733334-198.24 0-68.10666667-13.344-134.19733333-39.65866667-196.42666666z" fill="#0000FF" p-id="1587"></path><path d="M653.33333333 403.73333334c0 20.29866667-2.89066667 38.29333333-8.65066666 53.97333333-5.77066667 15.69066667-13.83466667 29.06666667-24.224 40.13866667-10.37866667 11.072-22.83733333 19.72266667-37.36533334 25.952-14.528 6.22933333-30.67733333 9.92-48.43733333 11.072l-2.42133333 83.38133333c0 3.456-2.02666667 6.05866667-6.05866667 7.78666667-4.04266667 1.728-10.54933333 2.592-19.552 2.592-4.84266667 0-8.992-0.17066667-12.45866667-0.52266667-3.456-0.34133333-6.22933333-0.91733333-8.29866666-1.728-2.08-0.81066667-3.57333333-1.89866667-4.50133334-3.28533333-0.928-1.38666667-1.38666667-2.99733333-1.38666666-4.84266667l-2.08-95.84c-0.23466667-5.30133333 0.17066667-9.632 1.216-12.97066667 1.03466667-3.33866667 2.592-6.112 4.672-8.29866666 2.08-2.18666667 4.72533333-3.69066667 7.95733333-4.50133334 3.232-0.81066667 6.92266667-1.216 11.072-1.216h7.616c14.98666667 0 27.78666667-2.35733333 38.4-7.09333333 10.60266667-4.72533333 19.2-11.008 25.77066667-18.85866667 6.57066667-7.84 11.36-17.06666667 14.35733333-27.68 2.99733333-10.60266667 4.50133333-21.67466667 4.50133333-33.216 0-13.152-1.84533333-25.19466667-5.536-36.16-3.69066667-10.95466667-9.22666667-20.416-16.608-28.37333333-7.38133333-7.95733333-16.66133333-14.12266667-27.85066666-18.50666667-11.18933333-4.384-24.39466667-6.57066667-39.616-6.57066666-13.376 0-25.088 1.44-35.11466667 4.32-10.03733333 2.89066667-18.74133333 6.05866667-26.12266667 9.51466666-7.38133333 3.456-13.44 6.57066667-18.16533333 9.344-4.72533333 2.76266667-8.24533333 4.14933333-10.54933333 4.14933334-1.62133333 0-3.06133333-0.34133333-4.32-1.03466667-1.26933333-0.69333333-2.368-2.016-3.28533334-3.97866667-0.928-1.952-1.62133333-4.608-2.08-7.95733333-0.46933333-3.33866667-0.69333333-7.552-0.69333333-12.62933333 0-5.536 0.34133333-9.73866667 1.03466667-12.62933334 0.69333333-2.88 2.18666667-5.41866667 4.50133333-7.616 2.304-2.18666667 6.74133333-5.06666667 13.32266667-8.65066666 6.57066667-3.57333333 14.528-6.85866667 23.872-9.856 9.344-2.99733333 19.60533333-5.536 30.79466666-7.616 11.18933333-2.08 22.77333333-3.11466667 34.77333334-3.11466667 24.68266667 0 45.89866667 3.52 63.65866666 10.54933333 17.76 7.04 32.40533333 16.55466667 43.936 28.544 11.53066667 12 20.064 26.06933333 25.6 42.208 5.54666667 16.16 8.32 33.22666667 8.32 51.22133334zM544 710.61333334c0 7.616-0.52266667 13.89866667-1.55733333 18.85866666s-2.944 8.992-5.70666667 12.10666667c-2.77333333 3.11466667-6.51733333 5.30133333-11.24266667 6.57066667-4.72533333 1.26933333-10.54933333 1.89866667-17.472 1.89866666-7.38133333 0-13.376-0.64-17.99466666-1.89866666-4.61866667-1.26933333-8.36266667-3.456-11.24266667-6.57066667-2.89066667-3.11466667-4.84266667-7.14666667-5.87733333-12.10666667-1.03466667-4.96-1.55733333-11.24266667-1.55733334-18.85866666s0.52266667-14.016 1.55733334-19.2c1.03466667-5.19466667 2.99733333-9.22666667 5.87733333-12.10666667 2.88-2.88 6.624-4.96 11.24266667-6.22933333 4.608-1.26933333 10.60266667-1.89866667 17.99466666-1.89866667 6.92266667 0 12.74666667 0.64 17.472 1.89866667 4.72533333 1.26933333 8.48 3.34933333 11.24266667 6.22933333 2.76266667 2.89066667 4.672 6.92266667 5.70666667 12.10666667 1.04533333 5.184 1.55733333 11.59466667 1.55733333 19.2z" fill="#FF0000" p-id="1588"></path></svg>