<?xml version="1.0" standalone="no"?><!DOCTYPE svg PUBLIC "-//W3C//DTD SVG 1.1//EN" "http://www.w3.org/Graphics/SVG/1.1/DTD/svg11.dtd"><svg t="1581932995420" class="icon" viewBox="0 0 1024 1024" version="1.1" xmlns="http://www.w3.org/2000/svg" p-id="1562" xmlns:xlink="http://www.w3.org/1999/xlink" width="200" height="200"><defs><style type="text/css"></style></defs><path d="M879.95733333 568.77511111c-35.61244445 0.22755555-66.56 8.76088889-92.38755555 21.504-9.55733333-18.88711111-19.11466667-35.49866667-20.70755556-47.78666666-1.82044445-14.336-3.98222222-23.09688889-1.82044444-40.27733334 2.16177778-17.18044445 12.17422222-41.41511111 12.17422222-43.46311111-0.22755555-1.82044445-2.16177778-10.58133333-22.75555555-10.80888889-20.48-0.22755555-38.22933333 3.98222222-40.27733334 9.32977778-2.048 5.34755555-6.03022222 17.74933333-8.53333333 30.49244444-3.64088889 18.77333333-41.07377778 85.10577778-62.35022223 119.92177778-6.94044445-13.53955555-12.97066667-25.48622222-14.10844444-35.04355556-1.82044445-14.336-3.98222222-23.09688889-1.82044444-40.27733333s12.17422222-41.41511111 12.17422222-43.46311111c-0.22755555-1.82044445-2.16177778-10.58133333-22.75555556-10.80888889-20.48-0.22755555-38.22933333 3.98222222-40.27733333 9.32977778-2.048 5.34755555-4.20977778 18.09066667-8.53333333 30.49244445-4.20977778 12.40177778-53.93066667 123.10755555-66.90133334 152.0071111-6.59911111 14.79111111-12.40177778 26.51022222-16.49777778 34.47466667-4.20977778 7.96444445-0.22755555 0.56888889-0.56888888 1.36533333-3.64088889 6.82666667-5.57511111 10.58133333-5.57511112 10.58133334v0.22755556c-2.84444445 5.00622222-5.80266667 9.78488889-7.168 9.78488888-1.024 0-2.95822222-13.312 0.45511112-31.63022222 7.39555555-38.45688889 25.25866667-98.41777778 25.14488888-100.57955556 0-1.024 3.41333333-11.60533333-11.60533333-16.95288888-14.56355555-5.34755555-19.68355555 3.64088889-20.93511111 3.64088888s-2.16177778 3.18577778-2.16177778 3.18577778S478.208 516.55111111 431.21777778 516.55111111c-29.46844445 0-70.08711111 32.08533333-90.22577778 61.32622222-12.74311111 6.94044445-39.82222222 21.73155555-68.49422222 37.43288889-10.92266667 6.03022222-22.30044445 12.40177778-33.10933333 18.09066667l-2.16177778-2.38933334c-57.00266667-60.75733333-162.36088889-103.76533333-157.92355556-185.45777777 1.59288889-29.696 11.94666667-107.97511111 202.41066667-202.752 155.98933333-77.71022222 280.91733333-56.32 302.53511111-8.98844445 30.83377778 67.69777778-66.78755555 193.64977778-228.92088889 211.74044445-61.78133333 6.94044445-94.208-16.95288889-102.4-25.94133333-8.53333333-9.32977778-9.78488889-9.78488889-12.97066667-7.96444445-5.23377778 2.84444445-2.048 11.15022222 0 16.15644445 4.77866667 12.51555555 24.68977778 34.816 58.59555556 45.96622222 29.696 9.78488889 102.17244445 15.13244445 189.89511111-18.77333334 98.19022222-38.00177778 174.87644445-143.58755555 152.34844445-231.87911111-22.86933333-89.88444445-171.91822222-119.35288889-312.77511112-69.29066667-83.85422222 29.92355555-174.64888889 76.45866667-240.07111111 137.67111112C10.24 364.20266667-2.048 427.46311111 3.072 453.74577778c18.09066667 93.86666667 147.456 154.96533333 199.22488889 200.24888889-2.61688889 1.36533333-5.00622222 2.84444445-7.168 3.98222222-25.94133333 12.74311111-124.47288889 64.39822222-149.16266667 118.89777778-27.87555555 61.78133333 4.43733333 106.15466667 25.94133333 112.18488888 66.56 18.54577778 134.71288889-14.79111111 171.46311112-69.51822222 36.63644445-54.72711111 32.31288889-125.952 15.36-158.37866666l-0.56888889-1.25155556 20.36622222-11.94666666c13.19822222-7.73688889 26.05511111-14.90488889 37.43288889-21.16266667-6.37155555 17.29422222-10.92266667 37.888-13.312 67.69777777-2.84444445 35.04355555 11.60533333 80.44088889 30.49244444 98.41777778 8.41955555 7.73688889 18.31822222 7.96444445 24.46222222 7.96444445 21.95911111 0 31.85777778-18.09066667 42.78044445-39.82222223 13.53955555-26.51022222 25.48622222-57.11644445 25.48622222-57.11644444s-14.90488889 83.05777778 25.94133333 83.05777778c14.90488889 0 29.92355555-19.34222222 36.63644445-29.24088889v0.22755555s0.45511111-0.56888889 1.25155555-2.048c1.59288889-2.38933333 2.38933333-3.75466667 2.38933334-3.75466666v-0.45511111c6.03022222-10.35377778 19.34222222-34.01955555 39.25333333-73.27288889 25.71377778-50.63111111 50.40355555-113.89155555 50.40355556-113.89155556s2.38933333 15.58755555 9.78488889 41.07377778c4.43733333 15.13244445 13.99466667 31.63022222 21.27644444 47.78666667-6.03022222 8.41955555-9.55733333 13.19822222-9.55733333 13.19822222l0.22755555 0.22755555c-4.77866667 6.37155555-10.12622222 13.19822222-15.70133333 19.91111112-20.36622222 24.34844445-44.60088889 51.99644445-47.78666667 59.96088888-3.75466667 9.32977778-2.95822222 16.384 4.43733334 21.95911112 5.34755555 3.98222222 14.90488889 4.77866667 25.14488888 3.98222222 18.31822222-1.25155555 31.06133333-5.80266667 37.4328889-8.53333334 10.01244445-3.64088889 21.27644445-8.98844445 32.31288888-16.95288888 19.91111111-14.79111111 32.08533333-35.61244445 30.83377778-63.60177778-0.56888889-15.36-5.57511111-30.49244445-11.71911111-44.82844444 1.82044445-2.61688889 3.64088889-5.23377778 5.34755555-7.96444445 31.51644445-45.96622222 55.75111111-96.59733333 55.75111112-96.59733333s2.38933333 15.58755555 9.78488888 41.07377778c3.75466667 12.97066667 11.37777778 27.07911111 18.09066667 41.07377777-29.46844445 24.12088889-48.01422222 51.99644445-54.38577777 70.31466667-11.71911111 33.90577778-2.61688889 49.152 14.7911111 52.79288889 7.73688889 1.59288889 18.88711111-2.048 27.30666667-5.57511111 10.35377778-3.41333333 22.86933333-9.216 34.47466667-17.74933334 19.91111111-14.79111111 39.02577778-35.27111111 38.00177778-62.91911111-0.56888889-12.74311111-3.98222222-25.25866667-8.53333334-37.20533333 25.14488889-10.35377778 57.57155555-16.384 98.75911112-11.37777778 88.63288889 10.35377778 106.15466667 65.76355555 102.74133333 88.86044444-3.41333333 23.09688889-21.95911111 35.84-28.10311111 39.82222223-6.144 3.75466667-8.192 5.23377778-7.62311112 7.96444444 0.79644445 4.20977778 3.64088889 3.98222222 8.98844445 3.18577778 7.39555555-1.25155555 46.64888889-18.88711111 48.24177778-61.55377778 2.16177778-54.95466667-49.83466667-114.80177778-142.10844445-114.11911111zM196.38044445 799.17511111c-29.24088889 32.08533333-70.54222222 44.25955555-88.064 33.90577778-18.88711111-10.92266667-11.60533333-58.14044445 24.46222222-92.27377778 21.95911111-20.70755555 50.40355555-39.82222222 69.17688888-51.54133333 4.20977778-2.61688889 10.58133333-6.37155555 18.09066667-10.92266667 1.25155555-0.79644445 2.048-1.25155555 2.048-1.25155556 1.36533333-0.79644445 2.95822222-1.82044445 4.55111111-2.84444444 13.312 48.69688889 0.56888889 91.36355555-30.26488888 124.928z m214.12977777-145.52177778c-10.12622222 24.91733333-31.63022222 88.86044445-44.60088889 85.21955556-11.15022222-2.95822222-17.97688889-51.42755555-2.16177778-99.21422222 7.96444445-24.12088889 24.91733333-52.79288889 34.816-63.94311112 16.15644445-17.97688889 33.67822222-23.89333333 38.00177778-16.49777777 5.23377778 9.55733333-19.68355555 78.848-26.05511111 94.43555555z m176.69688889 84.42311112c-4.43733333 2.16177778-8.41955555 3.75466667-10.12622222 2.61688888-1.36533333-0.79644445 1.82044445-3.75466667 1.82044444-3.75466666s22.07288889-23.66577778 30.83377778-34.70222222c5.00622222-6.37155555 10.92266667-13.76711111 17.29422222-22.0728889v2.38933334c0 28.672-27.53422222 47.78666667-39.82222222 55.52355556z m136.192-31.06133334c-3.18577778-2.38933333-2.84444445-9.78488889 7.96444444-32.88177778 4.20977778-9.216 13.76711111-24.46222222 30.2648889-39.02577778 2.048 6.03022222 3.18577778 11.71911111 2.95822222 17.18044445-0.11377778 35.72622222-25.6 49.152-41.18755556 54.72711111z" fill="#CF649A" p-id="1563"></path></svg>